PathFileType        4      (X/Y/Z)      /Users/FranklinZhao/OpenSimProject/Simulation/Models/Rajapogal_2015/marker_data/trc/transformed_SN001_0010_10m_01.trc         
DataRate	CameraRate	NumFrames	NumMarkers	Units	OrigDataRate	OrigDataStartFrame	OrigNumFrames
200.0	200.0	4	72	mm	200.0	401	641
Frame#	Time	LPSIS			RPSIS			LICR			RICR			LASIS			RASIS			STER			XPRO			C7			T4			T8			T10			RUA1			RUA2			RUA3			RUA4			RHLE			RHME			RTEMP			RHEAD			LHEAD			LTEMP			RACR			LACR			LUA1			LUA2			LUA3			LUA4			LHLE			LHME			LFA1			LFA2			LFA3			LRSP			LUSP			RFA1			RFA2			RFA3			RRSP			RUSP			LTH1			LTH2			LTH3			LTH4			LFLE			LFME			LSK1			LSK2			LSK3			LSK4			LTAM			LFAL			LFCC			LFMT1			LFMT2			LFMT5			RTH1			RTH2			RTH3			RTH4			RFLE			RFME			RSK1			RSK2			RSK3			RSK4			RFAL			RTAM			RFCC			RFMT1			RFMT2			RFMT5			
		X1	Y1	Z1	X2	Y2	Z2	X3	Y3	Z3	X4	Y4	Z4	X5	Y5	Z5	X6	Y6	Z6	X7	Y7	Z7	X8	Y8	Z8	X9	Y9	Z9	X10	Y10	Z10	X11	Y11	Z11	X12	Y12	Z12	X13	Y13	Z13	X14	Y14	Z14	X15	Y15	Z15	X16	Y16	Z16	X17	Y17	Z17	X18	Y18	Z18	X19	Y19	Z19	X20	Y20	Z20	X21	Y21	Z21	X22	Y22	Z22	X23	Y23	Z23	X24	Y24	Z24	X25	Y25	Z25	X26	Y26	Z26	X27	Y27	Z27	X28	Y28	Z28	X29	Y29	Z29	X30	Y30	Z30	X31	Y31	Z31	X32	Y32	Z32	X33	Y33	Z33	X34	Y34	Z34	X35	Y35	Z35	X36	Y36	Z36	X37	Y37	Z37	X38	Y38	Z38	X39	Y39	Z39	X40	Y40	Z40	X41	Y41	Z41	X42	Y42	Z42	X43	Y43	Z43	X44	Y44	Z44	X45	Y45	Z45	X46	Y46	Z46	X47	Y47	Z47	X48	Y48	Z48	X49	Y49	Z49	X50	Y50	Z50	X51	Y51	Z51	X52	Y52	Z52	X53	Y53	Z53	X54	Y54	Z54	X55	Y55	Z55	X56	Y56	Z56	X57	Y57	Z57	X58	Y58	Z58	X59	Y59	Z59	X60	Y60	Z60	X61	Y61	Z61	X62	Y62	Z62	X63	Y63	Z63	X64	Y64	Z64	X65	Y65	Z65	X66	Y66	Z66	X67	Y67	Z67	X68	Y68	Z68	X69	Y69	Z69	X70	Y70	Z70	X71	Y71	Z71	X72	Y72	Z72	
401	2.0	1288.5234375	976.4387817382812	-277.8904113769533	1289.968139648438	971.9205322265625	-200.95750427246108	1305.26708984375	1038.51220703125	-367.76422119140636	1315.628540039062	1050.231323242188	-110.1817932128908	1477.19677734375	960.0347900390624	-376.27807617187517	1485.692138671875	955.2634887695312	-115.61639404296898	1460.048828125	1421.955200195312	-240.96604919433616	1517.591918945312	1213.754028320312	-247.58692932128932	1327.648803710938	1525.03955078125	-242.33355712890648	1272.922729492188	1415.837158203125	-258.3068847656253	1267.811767578125	1282.17724609375	-253.84735107421903	1269.5078125	1237.601318359375	-257.1285095214846	1285.304443359375	1306.660400390625	-16.98323059082055	1358.035400390625	1287.925537109375	-11.992867469787836	1350.512084960938	1214.682983398438	-4.242085933685526	1276.627319335938	1221.68359375	-8.4859895706179	1288.437377929688	1132.052734375	-8.5109567642214	1280.751098632812	1129.520874023438	-87.90953063964865	1486.657348632812	1677.732666015625	-152.10264587402372	1529.905883789062	1687.549072265625	-185.4570770263675	1533.516357421875	1685.981689453125	-267.9536132812503	1486.339721679688	1671.619018554688	-308.1950988769534	1355.825561523438	1469.31640625	-59.76409149169949	1385.066162109375	1491.349731445312	-428.4031982421878	1452.78759765625	1356.6181640625	-490.6722106933596	1388.344604492188	1322.517333984375	-510.7951660156252	1421.621215820312	1247.419189453125	-539.0222167968752	1484.97021484375	1280.038940429688	-518.2854614257815	1478.716064453125	1189.107299804688	-545.8002929687502	1448.409545898438	1150.243774414062	-487.4172363281252	1692.849487304688	1100.319580078125	-510.2249755859377	1686.56884765625	1092.10302734375	-555.4922485351565	1702.336181640625	1068.595947265625	-520.3635253906252	1712.244873046875	1033.263671875	-481.074157714844	1697.59228515625	1008.8183593749999	-546.214050292969	1317.961669921875	943.5452880859375	52.849193572997876	1342.031494140625	929.4944458007812	16.17024421691878	1318.638916015625	906.0741577148438	27.72916793823225	1306.132568359375	851.1353759765625	3.1366386413572656	1265.557495117188	874.62548828125	51.3011627197264	1354.601196289062	694.6557617187499	-410.480194091797	1306.756469726562	710.5739135742186	-405.6519775390626	1268.290649414062	611.7342529296874	-385.70693969726574	1331.045532226562	596.6604003906249	-392.181854248047	1264.60791015625	517.7145996093749	-369.8489990234376	1259.2939453125	508.10086059570307	-250.3697052001954	1201.037963867188	347.33975219726557	-385.23385620117193	1142.3349609375	366.51501464843744	-378.55010986328125	1115.335205078125	285.0696716308593	-360.6907043457032	1177.36181640625	268.91812133789057	-369.56686401367193	1134.098876953125	108.92601776123045	-244.12309265136722	1087.881225585938	102.07530212402334	-313.1680908203125	1051.667236328125	73.00471496582027	-259.2344665527344	1258.90673828125	29.432010650634716	-281.3194580078125	1253.410034179688	30.92108726501459	-318.4501647949219	1201.854370117188	25.939697265624932	-359.4361267089844	1511.494873046875	709.960693359375	-68.8193283081056	1569.382568359375	725.174560546875	-66.19636535644544	1618.248657226562	653.3319702148438	-75.38290405273449	1562.3876953125	622.384033203125	-81.44783020019543	1637.948364257812	541.662109375	-95.65373992919932	1663.381469726562	525.9302368164062	-215.69448852539068	1633.332275390625	360.7781982421875	-83.57666015625007	1682.34521484375	391.8636474609375	-70.69925689697273	1714.25439453125	288.5949401855469	-87.4401473999024	1650.722290039062	280.1126403808594	-94.179183959961	1715.465698242188	84.06529998779294	-128.88481140136722	1756.4814453125	118.19876098632805	-200.25611877441412	1696.93359375	49.58358764648435	-186.5678558349609	1881.984375	90.925910949707	-148.48762512207034	1880.141723632812	90.83827209472653	-117.52952575683591	1844.0546875	68.41967773437499	-81.14479064941408	
402	2.005	1297.281860351562	975.0582275390625	-276.94635009765636	1298.90576171875	970.2632446289062	-200.11553955078136	1313.411254882812	1037.148071289062	-366.68099975585955	1326.568359375	1048.093872070312	-109.5856933593752	1485.61865234375	958.8310546874999	-376.38677978515636	1495.091674804688	953.7186889648438	-115.58131408691428	1469.023071289062	1420.489135742188	-240.43141174316435	1526.48828125	1212.142700195312	-247.29969787597682	1336.725952148438	1523.624633789062	-241.59967041015648	1281.930297851562	1414.457763671875	-257.8911437988284	1276.627075195312	1280.761840820312	-253.09883117675804	1278.248901367188	1235.952392578125	-256.28848266601585	1292.940673828125	1305.52490234375	-17.12442588806176	1366.011596679688	1286.414672851562	-11.534457206726307	1358.2978515625	1213.213623046875	-3.876152753830179	1284.280639648438	1220.401611328125	-8.504166603088603	1295.8359375	1130.960327148438	-8.299330711364954	1288.272216796875	1128.606811523438	-87.8537826538088	1495.709594726562	1676.143432617188	-151.5029602050784	1539.031127929688	1685.9580078125	-184.7766723632815	1542.572875976562	1684.261596679688	-267.3639221191409	1495.427001953125	1670.133666992188	-307.5391235351565	1364.643676757812	1467.8759765625	-59.35597229003933	1394.215454101562	1490.313598632812	-427.7904052734378	1462.272583007812	1356.228149414062	-490.4841003417971	1398.068603515625	1321.525146484375	-510.4297790527346	1431.794677734375	1246.790649414062	-539.0743408203127	1495.014770507812	1279.817016601562	-518.2790527343752	1489.388793945312	1188.900268554688	-546.2415161132815	1459.444702148438	1149.54833984375	-488.0714111328127	1704.661865234375	1102.981079101562	-510.2402343750002	1698.4248046875	1094.5712890625	-555.4451293945315	1714.481811523438	1071.312622070312	-520.260681152344	1724.880493164062	1036.165771484375	-481.08297729492205	1710.540405273438	1011.4075927734378	-546.143005371094	1323.626831054688	941.9890747070312	53.24635696411116	1347.817260742188	927.9847412109375	16.483427047729318	1324.35009765625	904.7115478515625	28.1223068237303	1311.6015625	849.7396850585938	3.413695335388028	1270.9501953125	873.6357421875	51.482135772704915	1361.377563476562	694.2995605468749	-410.59951782226574	1313.479614257812	710.4781494140624	-405.7444763183595	1274.491943359375	611.8975219726561	-385.6986083984376	1337.055908203125	596.3200683593749	-392.1444091796876	1270.137939453125	517.8734741210936	-369.9945678710939	1265.077392578125	508.0675964355468	-250.49638366699227	1204.658203125	348.08560180664057	-385.38546752929693	1146.167846679688	367.75811767578114	-378.5857238769532	1118.360107421875	286.74758911132807	-360.5381164550782	1180.185791015625	269.96453857421875	-369.8656311035157	1135.165649414062	110.38352203369136	-244.41458129882812	1088.83935546875	104.05950164794915	-313.2330627441406	1052.293701171875	75.42799377441402	-259.3581237792969	1258.884887695312	29.344726562499947	-281.5613403320312	1253.43408203125	30.898862838745064	-318.4242248535156	1201.960815429688	26.234046936035092	-359.3977355957031	1519.287109375	707.5567626953125	-68.05391693115247	1577.327880859375	722.462646484375	-65.68186950683607	1625.823486328125	650.486328125	-74.83863067626964	1569.826782226562	619.8499145507812	-80.84837341308605	1645.585571289062	539.0888061523438	-95.72272491455088	1671.301391601562	523.50927734375	-216.26283264160168	1645.681274414062	358.5584411621094	-82.98786163330085	1693.933349609375	390.8468933105469	-70.47906494140632	1728.563720703125	288.5036010742188	-86.91043853759771	1665.219848632812	278.2916870117188	-93.41735076904303	1735.451538085938	83.72946929931638	-127.61228179931642	1775.371948242188	118.76912689208976	-199.00845336914062	1717.691040039062	48.80233764648435	-185.3755340576172	1901.867919921875	94.53283691406247	-148.03919982910162	1900.220336914062	94.44077301025388	-117.13655090332031	1864.686767578125	71.10379791259764	-80.41704559326173	
403	2.01	1306.20263671875	973.4954223632812	-275.98373413085955	1308.002685546875	968.8648071289062	-199.28643798828136	1321.720703125	1035.691162109375	-365.92004394531267	1335.931640625	1046.98095703125	-108.8148040771486	1494.13232421875	957.3370971679686	-376.22613525390636	1504.413452148438	952.1380004882812	-115.65522003173847	1478.146850585938	1418.926879882812	-239.97184753417994	1535.405151367188	1210.58349609375	-247.10478210449241	1345.720703125	1522.274536132812	-241.1969604492191	1290.971313476562	1413.077026367188	-257.3463745117191	1285.59521484375	1279.345703125	-252.32659912109403	1287.206787109375	1234.686645507812	-255.37145996093773	1301.403930664062	1304.319091796875	-16.85173988342309	1373.92919921875	1285.031616210938	-11.126743316650627	1365.888916015625	1211.925048828125	-3.4133412837984407	1292.038452148438	1219.437744140625	-8.52247238159202	1303.29150390625	1129.747192382812	-8.160351753235071	1295.888916015625	1127.380004882812	-87.66680145263693	1504.74169921875	1674.569091796875	-150.86834716796912	1548.023559570312	1684.372192382812	-184.2009735107425	1551.587768554688	1682.702514648438	-266.6878662109378	1504.48046875	1668.667114257812	-306.8784179687503	1373.429443359375	1466.213745117188	-58.92898178100613	1403.360229492188	1489.082763671875	-427.13449096679716	1471.783447265625	1355.662963867188	-490.22146606445335	1407.817626953125	1320.623291015625	-510.2440185546877	1441.955200195312	1246.25048828125	-539.0674438476565	1504.920654296875	1279.596923828125	-518.2258911132815	1500.038452148438	1188.678588867188	-546.495056152344	1470.48681640625	1148.99560546875	-488.3022155761721	1716.143310546875	1105.539794921875	-510.13641357421903	1710.285034179688	1097.051513671875	-555.3757324218752	1726.43798828125	1074.091918945312	-520.0837402343752	1737.13525390625	1038.908325195312	-480.92236328125017	1723.406005859375	1014.1198730468749	-546.046325683594	1329.59326171875	940.7388305664062	53.61867904663069	1353.784423828125	926.4140014648438	17.01653861999495	1330.323364257812	903.3204956054688	28.449756622314283	1317.142944335938	848.4785766601562	3.644602775573574	1276.494750976562	872.6366577148438	51.668109893798665	1368.26708984375	693.9023437499999	-410.5953369140626	1320.482177734375	710.4304199218749	-405.8975219726563	1280.863159179688	612.1795043945311	-385.5745239257813	1343.26171875	596.1229248046874	-392.2760009765626	1275.76318359375	517.9312744140624	-370.0269775390626	1271.085815429688	508.11563110351557	-250.34133911132818	1208.47998046875	348.9869079589843	-385.60980224609386	1150.171508789062	369.17214965820307	-378.4513244628907	1121.532104492188	288.53961181640614	-360.7607727050782	1183.093872070312	270.89215087890614	-369.75970458984386	1136.329467773438	111.64966583251946	-244.66079711914062	1089.992309570312	105.92987823486324	-313.543212890625	1053.033935546875	78.01132965087886	-259.785888671875	1258.822631835938	29.408151626586857	-281.2990112304688	1253.419311523438	30.676111221313423	-318.5457153320312	1202.139282226562	26.46713256835931	-359.4949645996094	1527.153930664062	705.3076171875	-67.4920349121095	1585.167236328125	720.040283203125	-64.9517517089845	1633.389526367188	647.7001342773438	-74.12235260009777	1577.273193359375	617.3584594726562	-80.16944122314464	1653.05517578125	536.5505981445312	-95.66205596923838	1679.088623046875	521.45556640625	-217.283905029297	1657.835083007812	356.4979553222656	-82.65206909179695	1705.3876953125	390.0128173828125	-70.37372589111335	1742.386474609375	288.4082946777344	-86.40388488769537	1679.326904296875	276.6748352050781	-92.73790740966803	1754.680053710938	83.71286773681638	-126.19480895996091	1793.65283203125	119.56582641601555	-197.73477172851562	1737.687377929688	48.17786026000974	-184.0607299804688	1920.966064453125	98.39544677734372	-147.49140930175784	1919.4912109375	98.21482086181638	-116.48474884033202	1884.498413085938	74.23681640624999	-79.6212844848633	
404	2.015	1315.256225585938	972.1502685546875	-275.0325012207033	1317.380249023438	967.357421875	-198.18833923339858	1330.1611328125	1034.114501953125	-365.05688476562517	1345.233520507812	1045.823364257812	-108.0549163818361	1502.662841796875	956.0244750976561	-376.18750000000017	1513.906982421875	950.8871459960938	-115.50133514404317	1487.2021484375	1417.75341796875	-239.32693481445335	1544.518310546875	1209.269653320312	-246.76266479492213	1354.477783203125	1521.115234375	-240.77844238281278	1300.063842773438	1411.610717773438	-256.85922241210966	1294.618530273438	1278.020629882812	-251.68782043457054	1296.23046875	1233.261474609375	-254.70991516113304	1309.31884765625	1303.324584960938	-16.95019340515161	1382.0361328125	1283.744995117188	-10.660329818725826	1374.056640625	1210.474731445312	-2.8575868606569603	1299.92236328125	1218.199340820312	-8.473342895508036	1310.861328125	1128.6201171875	-7.947757244110314	1303.726684570312	1126.175170898438	-87.49124908447287	1513.834228515625	1673.182983398438	-150.211349487305	1557.192260742188	1682.967651367188	-183.5104064941409	1560.60986328125	1681.285888671875	-266.1160888671878	1513.464965820312	1667.104125976562	-306.1908264160159	1382.31201171875	1464.860229492188	-58.31082153320339	1412.422241210938	1488.006713867188	-426.4690246582034	1481.284057617188	1355.143676757812	-489.97915649414085	1417.41015625	1319.7822265625	-509.83905029296903	1452.024047851562	1245.737060546875	-538.8997802734377	1514.8095703125	1279.449462890625	-518.333190917969	1510.339111328125	1188.619018554688	-546.9233398437502	1481.36865234375	1148.350952148438	-488.46060180664085	1727.51708984375	1108.041870117188	-510.0982666015627	1721.882690429688	1099.58740234375	-555.3013916015627	1738.166748046875	1076.6796875	-519.9503173828127	1749.355712890625	1041.7470703125	-480.86154174804705	1736.000122070312	1016.8351440429689	-545.897644042969	1335.859497070312	939.4030151367188	53.92837905883772	1359.924194335938	924.8878784179688	17.323431015014478	1336.237426757812	902.1536865234375	28.819900512695142	1322.802124023438	847.3574829101562	3.980571985244595	1282.278564453125	871.7439575195312	51.86960220336898	1375.39990234375	693.4589233398436	-410.5556640625001	1327.551147460938	710.7491455078124	-405.84268188476574	1287.352783203125	612.3570556640624	-385.4178161621095	1349.6474609375	595.9011840820311	-392.09536743164074	1281.500366210938	518.2130126953124	-370.0430603027345	1277.1044921875	508.09759521484375	-250.33032226562509	1212.515869140625	349.85919189453114	-385.73614501953125	1154.465087890625	370.67364501953114	-378.39547729492193	1124.84326171875	290.23107910156244	-360.66015625000006	1186.198120117188	272.0546569824218	-369.99908447265625	1137.63916015625	113.22472381591795	-245.00955200195312	1091.18310546875	108.33976745605464	-313.8508605957031	1053.919799804688	80.84663391113277	-260.305908203125	1258.770385742188	29.354888916015568	-281.4218444824219	1253.428955078125	30.715717315673775	-318.5484313964844	1202.349243164062	26.863084793090753	-359.4921875	1534.994262695312	703.2169189453125	-66.73269653320325	1593.17333984375	717.5739135742188	-64.46823883056653	1641.09619140625	645.2696533203125	-73.51438903808605	1584.8037109375	615.0038452148438	-79.54930877685558	1660.585327148438	534.0411987304688	-95.66702270507822	1686.9990234375	519.1834716796875	-217.95751953125009	1669.6806640625	354.7117919921875	-82.15547180175788	1716.43603515625	389.3291015625	-70.06732940673835	1755.689453125	288.4067993164062	-85.812240600586	1692.93310546875	275.4474487304688	-91.91519927978521	1773.160278320312	83.85885620117185	-124.87830352783202	1811.094604492188	120.41067504882805	-196.47346496582034	1756.93115234375	47.85570907592769	-182.4220733642578	1939.358520507812	102.22284698486327	-147.09944152832034	1937.979736328125	101.81709289550778	-115.81431579589841	1903.827514648438	76.90585327148436	-78.78099822998048	
